Coordinates
version=1
nRows=19
nColumns=34
inDegrees=yes

Units are S.I. units (second, meters, Newtons, ...)
If the header above contains a line with 'inDegrees', this indicates whether rotational values are in degrees (yes) or radians (no).

endheader
time	pelvis_tilt	pelvis_list	pelvis_rotation	pelvis_tx	pelvis_ty	pelvis_tz	hip_flexion_r	hip_adduction_r	hip_rotation_r	knee_angle_r	ankle_angle_r	subtalar_angle_r	mtp_angle_r	hip_flexion_l	hip_adduction_l	hip_rotation_l	knee_angle_l	ankle_angle_l	subtalar_angle_l	mtp_angle_l	lumbar_extension	lumbar_bending	lumbar_rotation	arm_flex_r	arm_add_r	arm_rot_r	elbow_flex_r	pro_sup_r	arm_flex_l	arm_add_l	arm_rot_l	elbow_flex_l	pro_sup_l
      2.05000000	     -3.10667486	      2.13307235	     -3.54447470	      1.80907048	      0.90008662	     -0.19805353	     -0.80306844	     -7.72947152	      2.82453701	      0.00000000	      2.49319073	    -19.23734140	      0.00000000	     -2.59922803	     -1.64066516	     -2.54957750	      0.00000000	      3.90196818	     -6.21959642	      0.00000000	     -5.92508395	      0.27882161	     -1.49439092	     11.71322226	     -8.39949252	     40.83715880	     88.82352700	     94.31306465	     10.22599827	     -5.07909115	     30.67698892	     83.44958686	     92.25816088
      2.06666670	     -3.10939929	      2.13522025	     -3.54584380	      1.80909914	      0.90045687	     -0.19829935	     -0.80212680	     -7.72988881	      2.82443672	      0.00000000	      2.49300790	    -19.23738695	      0.00000000	     -2.59978686	     -1.64174512	     -2.54957013	      0.00000000	      3.90192873	     -6.21975022	      0.00000000	     -5.92541004	      0.27954475	     -1.49454522	     11.71295558	     -8.39961933	     40.83708721	     88.82371317	     94.31284120	     10.22593016	     -5.07868728	     30.67743431	     83.44957296	     92.25792677
      2.08333330	     -3.14811608	      2.15029653	     -3.61799973	      1.80892127	      0.90080083	     -0.19895139	     -0.71992129	     -7.78294466	      2.82877141	      0.00000000	      2.47731333	    -19.22646378	      0.00000000	     -2.56569660	     -1.57788647	     -2.52721949	      0.00000000	      3.91537694	     -6.22099120	      0.00000000	     -5.97746556	      0.36612916	     -1.55145539	     11.70008905	     -8.44891232	     40.81877925	     88.82605825	     94.29950255	     10.23705115	     -5.02885554	     30.70577661	     83.43690103	     92.24457730
      2.10000000	     -3.15000275	      2.14810927	     -3.61792840	      1.80885157	      0.90119743	     -0.19906753	     -0.71861064	     -7.78176614	      2.82947708	      0.00000000	      2.47697106	    -19.22598397	      0.00000000	     -2.56448220	     -1.57423370	     -2.52670988	      0.00000000	      3.91609452	     -6.22106470	      0.00000000	     -5.97772906	      0.36652633	     -1.55175283	     11.70068262	     -8.44938796	     40.81834950	     88.82649613	     94.29923076	     10.23693610	     -5.02810154	     30.70619568	     83.43644431	     92.24428675
      2.11666670	     -3.22534934	      2.16015951	     -3.67025861	      1.80855872	      0.90136067	     -0.19924049	     -0.58019078	     -7.81764040	      2.89258138	      0.00000000	      2.44712364	    -19.17382082	      0.00000000	     -2.45997594	     -1.50927659	     -2.45077112	      0.00000000	      3.98923982	     -6.21235030	      0.00000000	     -6.08111293	      0.45852518	     -1.63835374	     11.76579605	     -8.52890455	     40.76547220	     88.84903601	     94.27760824	     10.23576294	     -4.90990765	     30.75439992	     83.38069392	     92.22256464
      2.13333330	     -3.22277162	      2.15008996	     -3.66773681	      1.80868800	      0.90142845	     -0.19883459	     -0.57811687	     -7.81918793	      2.89312639	      0.00000000	      2.44693874	    -19.17335490	      0.00000000	     -2.45773976	     -1.50230541	     -2.45037426	      0.00000000	      3.98995088	     -6.21241486	      0.00000000	     -6.08087603	      0.45895628	     -1.63846671	     11.76662437	     -8.52909489	     40.76516984	     88.84956296	     94.27741377	     10.23569660	     -4.90893950	     30.75467516	     83.38021128	     92.22234468
      2.15000000	     -3.22878898	      2.15833625	     -3.66347773	      1.80892740	      0.90154486	     -0.19801302	     -0.57490248	     -7.80018614	      2.89696041	      0.00000000	      2.44615475	    -19.16961981	      0.00000000	     -2.45594746	     -1.48949891	     -2.44949349	      0.00000000	      3.99447309	     -6.21393548	      0.00000000	     -6.08067811	      0.46222068	     -1.64100455	     11.77100491	     -8.52904479	     40.76367330	     88.85311287	     94.27613832	     10.23533376	     -4.90092253	     30.75717493	     83.37675547	     92.22089322
      2.16666670	     -3.23900731	      2.16469467	     -3.65999186	      1.80906320	      0.90178374	     -0.19745951	     -0.57006761	     -7.78576437	      2.90194032	      0.00000000	      2.44618088	    -19.16437663	      0.00000000	     -2.45631696	     -1.48435823	     -2.45340696	      0.00000000	      4.00006046	     -6.21865085	      0.00000000	     -6.07943133	      0.46397349	     -1.64539060	     11.77455725	     -8.52521306	     40.76313108	     88.85855096	     94.27444946	     10.23556283	     -4.89007542	     30.76060420	     83.37208093	     92.21886789
      2.18333330	     -3.24394069	      2.16795502	     -3.66036107	      1.80906205	      0.90236703	     -0.19749923	     -0.57049822	     -7.78214243	      2.90245578	      0.00000000	      2.44639878	    -19.16378118	      0.00000000	     -2.45682570	     -1.48425054	     -2.45479314	      0.00000000	      4.00068820	     -6.21974994	      0.00000000	     -6.07888108	      0.46389834	     -1.64615172	     11.77476860	     -8.52424867	     40.76320557	     88.85943285	     94.27422613	     10.23586865	     -4.88862140	     30.76099902	     83.37155176	     92.21858657
      2.20000000	     -3.24838041	      2.17781433	     -3.66150274	      1.80908591	      0.90302273	     -0.19771656	     -0.57059288	     -7.77385074	      2.90279298	      0.00000000	      2.44671651	    -19.16323915	      0.00000000	     -2.45734936	     -1.48524752	     -2.45699284	      0.00000000	      4.00099686	     -6.22116077	      0.00000000	     -6.07842061	      0.46369303	     -1.64724456	     11.77469044	     -8.52315800	     40.76333266	     88.86029180	     94.27401326	     10.23642043	     -4.88716081	     30.76132709	     83.37101947	     92.21831144
      2.21666670	     -3.25093790	      2.18980481	     -3.66336650	      1.80902994	      0.90301155	     -0.19799523	     -0.57138520	     -7.76445035	      2.90280763	      0.00000000	      2.44697921	    -19.16274592	      0.00000000	     -2.45785607	     -1.48692600	     -2.45956174	      0.00000000	      4.00082253	     -6.22248784	      0.00000000	     -6.07844083	      0.46352816	     -1.64868044	     11.77430916	     -8.52225642	     40.76346524	     88.86091778	     94.27382994	     10.23711271	     -4.88573621	     30.76162169	     83.37045176	     92.21807276
      2.23333330	     -3.25448453	      2.20038694	     -3.66637078	      1.80877867	      0.90247572	     -0.19823577	     -0.57378236	     -7.75653177	      2.90223300	      0.00000000	      2.44741104	    -19.16240346	      0.00000000	     -2.45870429	     -1.48866263	     -2.46307436	      0.00000000	      4.00019214	     -6.22405768	      0.00000000	     -6.07873101	      0.46351061	     -1.65094145	     11.77367403	     -8.52123538	     40.76362684	     88.86155393	     94.27362499	     10.23834906	     -4.88374597	     30.76202014	     83.36981868	     92.21780902
      2.25000000	     -3.47674757	      2.19752081	     -3.86860331	      1.80821804	      0.90145755	     -0.19810666	     -0.24481788	     -7.73023822	      2.89617674	      0.00000000	      2.63154683	    -18.76907771	      0.00000000	     -2.19372705	     -1.50262449	     -3.20021291	      0.00000000	      3.41139540	     -6.57061811	      0.00000000	     -5.88854836	      0.52981952	     -1.72261935	     11.76086990	     -8.37059593	     40.74496396	     89.17013168	     94.09006880	     10.46791996	     -4.61635933	     30.77835903	     82.83592851	     91.97457323
      2.26666670	     -3.48040467	      2.19683942	     -3.86972864	      1.80803374	      0.90080044	     -0.19799616	     -0.24679591	     -7.73079382	      2.89469730	      0.00000000	      2.63196270	    -18.76946859	      0.00000000	     -2.19515304	     -1.50223671	     -3.20010279	      0.00000000	      3.41172116	     -6.57083628	      0.00000000	     -5.88887819	      0.53003118	     -1.72265643	     11.76171156	     -8.37022473	     40.74473281	     89.17024907	     94.08984459	     10.46954786	     -4.61541151	     30.77833726	     82.83601737	     91.97429053
      2.28333330	     -3.58944249	      2.21202049	     -3.89798992	      1.80765649	      0.90016821	     -0.19782838	     -0.08563596	     -7.73196241	      2.71008280	      0.00000000	      2.70780178	    -18.84511784	      0.00000000	     -2.05867286	     -1.50382508	     -3.21837872	      0.00000000	      3.49635781	     -6.63250581	      0.00000000	     -5.89319579	      0.54463198	     -1.68087340	     12.04221523	     -8.24527947	     40.67878144	     89.23356289	     94.05423784	     10.85460378	     -4.47151474	     30.75162506	     82.90862500	     91.92998009
      2.30000000	     -3.59476712	      2.21810323	     -3.89990253	      1.80763406	      0.90032955	     -0.19793535	     -0.08596643	     -7.73000009	      2.70942550	      0.00000000	      2.70802289	    -18.84535723	      0.00000000	     -2.06061154	     -1.50635742	     -3.21785743	      0.00000000	      3.49636848	     -6.63240361	      0.00000000	     -5.89325480	      0.54492886	     -1.68114026	     12.04389852	     -8.24493947	     40.67821227	     89.23394863	     94.05401671	     10.85700280	     -4.47063209	     30.75165223	     82.90926746	     91.92972265
      2.31666670	     -3.73242140	      2.24537914	     -3.95485933	      1.80704319	      0.90091849	     -0.19813433	      0.12263311	     -7.73962483	      2.63302513	      0.00000000	      2.75397342	    -18.88336142	      0.00000000	     -1.89372657	     -1.49645050	     -3.15723037	      0.00000000	      3.49753801	     -6.60547232	      0.00000000	     -5.91083696	      0.59250868	     -1.62263781	     12.51373758	     -8.08845797	     40.54978535	     89.33222868	     94.01741642	     11.37295070	     -4.31830170	     30.73557820	     83.08456354	     91.88809621
      2.33333330	     -3.74971200	      2.25256131	     -3.95774095	      1.80664686	      0.90204439	     -0.19832824	      0.11861587	     -7.73790118	      2.63224019	      0.00000000	      2.75420570	    -18.88387444	      0.00000000	     -1.89905745	     -1.49958119	     -3.15709040	      0.00101864	      3.49739650	     -6.60551055	      0.00000000	     -5.91044986	      0.59265636	     -1.62241892	     12.51609221	     -8.08742321	     40.54917400	     89.33294976	     94.01720940	     11.37577464	     -4.31771151	     30.73565728	     83.08583815	     91.88785823
      2.35000000	     -3.92310790	      2.27730776	     -4.03366273	      1.80470591	      0.90335952	     -0.19828456	      0.44350029	     -7.72647408	      2.53675241	      0.00000000	      2.74558747	    -18.92014035	      0.00000000	     -1.63130041	     -1.48822203	     -3.19358622	      0.01587657	      3.41501365	     -6.59561580	      0.00000000	     -6.08151361	      0.64485628	     -1.48081101	     13.24858095	     -7.77669517	     40.37104829	     89.46879542	     93.97794679	     12.13918645	     -4.21338225	     30.69635041	     83.35831335	     91.84363776
